#!OML:ASF F:\VICON\USERDATA\INSTALL\rory3\rory3.ASF
:FULLY-SPECIFIED
:DEGREES
824
root 1.28112 33.4507 -3.09984 -167.332 -6.24862 -176.844
lowerback 5.1335 0.100893 -3.73259
upperback 0.820684 -0.10102 0.277752
thorax -2.02734 -0.0394661 2.38874
lowerneck -18.8194 7.35193 -27.1462
upperneck 44.7835 8.22545 21.3773
head 17.0731 -0.0848988 17.2036
rclavicle 3.37934e-015 -1.82882e-014
rhumerus -13.2879 0.850805 -85.2216
rradius 56.1944
rwrist -4.44061
rhand -27.1157 16.0422
rfingers 7.12502
rthumb -0.531812 -13.9368
lclavicle 3.37934e-015 -1.82882e-014
lhumerus -0.293179 -20.3108 86.3406
lradius 57.9975
lwrist 10.07
lhand -26.1983 24.1272
lfingers 7.12502
lthumb 0.354239 54.1067
rfemur -25.0255 3.26898 23.0098
rtibia 27.5241
rfoot -15.9358 -2.44375
rtoes 12.5926
lfemur -29.3553 6.46768 -24.6188
ltibia 31.2262
lfoot -10.0948 6.78675
ltoes -13.198
825
root 1.27936 33.4466 -3.08727 -167.153 -6.09518 -176.696
lowerback 5.19612 0.163892 -3.67397
upperback 0.858565 -0.0188727 0.235367
thorax -2.02909 -0.000457502 2.30659
lowerneck -18.7177 7.53353 -27.1791
upperneck 44.7619 8.38234 21.6352
head 16.9092 0.0412423 17.3149
rclavicle 4.17448e-015 6.36111e-015
rhumerus -13.1392 0.764831 -85.2666
rradius 56.3029
rwrist -4.51273
rhand -27.009 16.0387
rfingers 7.12502
rthumb -0.428749 -13.9406
lclavicle 4.17448e-015 6.36111e-015
lhumerus -0.193695 -20.3957 86.2405
lradius 58.4015
lwrist 9.98793
lhand -26.2906 24.3306
lfingers 7.12502
lthumb 0.265107 54.3102
rfemur -25.2967 3.21749 23.1786
rtibia 27.516
rfoot -15.7853 -2.2951
rtoes 12.5768
lfemur -29.6459 6.61263 -24.5245
ltibia 31.2574
lfoot -10.0742 6.77738
ltoes -13.702
826
root 1.27786 33.4428 -3.07322 -166.929 -5.9076 -176.576
lowerback 5.19886 0.190523 -3.69855
upperback 0.878641 0.0133293 0.195865
thorax -2.01213 0.0145057 2.27745
lowerneck -18.5254 7.735 -27.252
upperneck 44.6178 8.56502 21.9246
head 16.6198 0.213144 17.3909
rclavicle 2.5842e-015 1.59028e-015
rhumerus -13.0424 0.769515 -85.359
rradius 56.4664
rwrist -4.57157
rhand -26.9587 16.0903
rfingers 7.12502
rthumb -0.38017 -13.8891
lclavicle 2.5842e-015 1.59028e-015
lhumerus -0.106878 -20.3465 86.1038
lradius 58.7493
lwrist 9.90049
lhand -25.7009 24.6906
lfingers 7.12502
lthumb 0.834637 54.6687
rfemur -25.6402 3.27182 23.2827
rtibia 27.5304
rfoot -15.6617 -2.15786
rtoes 12.8063
lfemur -29.9824 6.72275 -24.462
ltibia 31.2932
lfoot -10.0151 6.81459
ltoes -13.8903
827
root 1.27446 33.4412 -3.06079 -166.694 -5.73429 -176.635
lowerback 5.21603 0.176239 -3.9136
upperback 0.914181 -0.0207591 0.164733
thorax -1.98281 -0.00329258 2.36855
lowerneck -18.4665 7.91364 -27.4594
upperneck 44.5099 8.83158 22.2134
head 16.3523 0.397077 17.521
rclavicle -8.15017e-015 -1.59028e-015
rhumerus -12.8548 1.03598 -85.3402
rradius 56.569
rwrist -4.85702
rhand -26.9536 16.1498
rfingers 7.12502
rthumb -0.375321 -13.8296
lclavicle -8.15017e-015 -1.59028e-015
lhumerus 0.0161959 -20.0977 86.0221
lradius 59.0733
lwrist 9.91303
lhand -25.3537 24.7641
lfingers 7.12502
lthumb 1.16997 54.7407
rfemur -25.9746 3.249 23.1932
rtibia 27.5521
rfoot -15.5509 -2.02492
rtoes 12.6902
lfemur -30.299 6.93594 -24.6338
ltibia 31.3129
lfoot -9.9936 6.7136
ltoes -13.9343
828
root 1.26941 33.4394 -3.05116 -166.536 -5.57694 -176.564
lowerback 5.18193 0.212189 -3.96567
upperback 1.04503 0.0228445 0.141434
thorax -1.83205 0.0115307 2.3707
lowerneck -18.4876 8.04948 -27.5224
upperneck 44.4401 9.04622 22.3888
head 16.1834 0.555021 17.5908
rclavicle -5.56597e-015 2.46493e-014
rhumerus -12.5375 1.17808 -85.2744
rradius 56.637
rwrist -5.08543
rhand -26.8507 16.0714
rfingers 7.12502
rthumb -0.275924 -13.9081
lclavicle -5.56597e-015 2.46493e-014
lhumerus 0.224063 -20.0275 85.8705
lradius 59.4648
lwrist 9.94188
lhand -25.3967 24.7435
lfingers 7.12502
lthumb 1.12845 54.7202
rfemur -26.2158 3.20011 23.2564
rtibia 27.5721
rfoot -15.4121 -1.84545
rtoes 12.3423
lfemur -30.5046 7.12011 -24.6407
ltibia 31.3064
lfoot -10.0238 6.65632
ltoes -13.7025
829
root 1.26582 33.441 -3.04131 -166.33 -5.46519 -176.466
lowerback 5.14654 0.231425 -3.952
upperback 1.04976 0.0472005 0.0307769
thorax -1.80908 0.0222855 2.24725
lowerneck -18.1749 8.31377 -27.3639
upperneck 44.2955 9.19529 22.5986
head 15.8995 0.734977 17.5462
rclavicle 6.95746e-015 -7.95139e-016
rhumerus -12.4646 1.1951 -85.4134
rradius 56.7051
rwrist -5.19799
rhand -26.8594 15.9626
rfingers 7.12502
rthumb -0.284333 -14.017
lclavicle 6.95746e-015 -7.95139e-016
lhumerus 0.18206 -20.1391 85.5892
lradius 59.9745
lwrist 10.0551
lhand -25.3824 24.9583
lfingers 7.12502
lthumb 1.14227 54.935
rfemur -26.515 3.23836 23.308
rtibia 27.603
rfoot -15.3593 -1.69527
rtoes 12.4485
lfemur -30.7631 7.17031 -24.5867
ltibia 31.2766
lfoot -10.0526 6.60164
ltoes -13.3722
830
root 1.26311 33.443 -3.02811 -166.102 -5.338 -176.362
lowerback 5.19376 0.273215 -3.88941
upperback 1.01752 0.0985181 -0.127605
thorax -1.87193 0.0482797 2.04544
lowerneck -17.8912 8.55367 -27.1642
upperneck 44.1112 9.29857 22.8539
head 15.6253 0.911625 17.5197
rclavicle -7.95139e-016 -7.95139e-015
rhumerus -12.4898 1.18301 -85.5955
rradius 56.8627
rwrist -5.39518
rhand -26.9644 15.9459
rfingers 7.12502
rthumb -0.385718 -14.0335
lclavicle -7.95139e-016 -7.95139e-015
lhumerus 0.179043 -20.3034 85.3337
lradius 60.3991
lwrist 10.0331
lhand -25.4234 25.272
lfingers 7.12502
lthumb 1.10262 55.2489
rfemur -26.8241 3.4069 23.3234
rtibia 27.6107
rfoot -15.3198 -1.48907
rtoes 12.9184
lfemur -31.0804 7.18891 -24.515
ltibia 31.2797
lfoot -10.0393 6.53514
ltoes -13.2179
831
root 1.26085 33.4427 -3.01354 -165.901 -5.25918 -176.247
lowerback 5.29337 0.332931 -3.81756
upperback 1.05279 0.172759 -0.216867
thorax -1.89569 0.0831499 1.90805
lowerneck -17.7793 8.68352 -27.1726
upperneck 43.9399 9.42028 23.0835
head 15.4024 1.05995 17.5608
rclavicle -1.31198e-014 -2.70347e-014
rhumerus -12.3787 1.11907 -85.6225
rradius 57.0665
rwrist -5.63239
rhand -26.8772 15.9247
rfingers 7.12502
rthumb -0.301461 -14.0548
lclavicle -1.31198e-014 -2.70347e-014
lhumerus 0.396278 -20.4518 85.1868
lradius 60.6813
lwrist 9.91826
lhand -25.4827 25.1759
lfingers 7.12502
lthumb 1.04536 55.153
rfemur -27.0982 3.66409 23.3333
rtibia 27.6065
rfoot -15.4245 -1.28238
rtoes 13.0178
lfemur -31.4133 7.28949 -24.4509
ltibia 31.3252
lfoot -10.0013 6.49294
ltoes -13.6162
832
root 1.25816 33.4413 -2.99617 -165.676 -5.23153 -176.147
lowerback 5.40031 0.383445 -3.78561
upperback 1.06074 0.233372 -0.28117
thorax -1.95068 0.112941 1.81947
lowerneck -17.5445 8.81587 -27.1899
upperneck 43.7107 9.52669 23.262
head 15.1265 1.2039 17.5355
rclavicle -7.95139e-015 -3.89618e-014
rhumerus -12.2649 1.0661 -85.5865
rradius 57.2397
rwrist -5.87818
rhand -26.7529 15.8808
rfingers 7.12502
rthumb -0.18144 -14.0989
lclavicle -7.95139e-015 -3.89618e-014
lhumerus 0.605328 -20.6564 85.0439
lradius 60.9757
lwrist 9.93565
lhand -25.5292 25.3257
lfingers 7.12502
lthumb 1.00044 55.3031
rfemur -27.3953 3.9249 23.3104
rtibia 27.586
rfoot -15.6711 -1.04401
rtoes 12.6918
lfemur -31.8221 7.39302 -24.4084
ltibia 31.4408
lfoot -9.97633 6.39613
ltoes -13.6534
833
root 1.25546 33.4405 -2.98047 -165.428 -5.23663 -175.96
lowerback 5.4657 0.37411 -3.7497
upperback 1.03822 0.220983 -0.257121
thorax -2.00963 0.10836 1.82478
lowerneck -16.9393 9.10637 -27.4512
upperneck 43.4054 9.59767 23.746
head 14.5609 1.4416 17.2046
rclavicle 0 -1.19271e-014
rhumerus -12.2814 1.23674 -85.5173
rradius 57.5079
rwrist -6.1366
rhand -26.6748 15.8742
rfingers 7.12502
rthumb -0.105965 -14.1055
lclavicle 0 -1.19271e-014
lhumerus 0.792669 -20.6297 84.9066
lradius 61.2127
lwrist 9.96756
lhand -25.5468 25.445
lfingers 7.12502
lthumb 0.983481 55.4225
rfemur -27.7022 4.1485 23.3724
rtibia 27.6018
rfoot -15.9039 -0.63914
rtoes 12.2572
lfemur -32.2681 7.48206 -24.268
ltibia 31.5827
lfoot -10.0384 6.2394
ltoes -13.2712
834
root 1.25422 33.4385 -2.96491 -165.18 -5.31713 -175.718
lowerback 5.56186 0.334729 -3.52401
upperback 0.99186 0.176615 -0.300056
thorax -2.10771 0.0874973 1.65686
lowerneck -16.773 9.31357 -27.4273
upperneck 43.2358 9.82145 23.9212
head 14.312 1.62649 17.1982
rclavicle -1.55052e-014 -3.73715e-014
rhumerus -12.3649 1.30399 -85.5948
rradius 57.7892
rwrist -6.31296
rhand -26.6597 15.9793
rfingers 7.12502
rthumb -0.0913747 -14.0004
lclavicle -1.55052e-014 -3.73715e-014
lhumerus 0.848629 -20.7449 84.6087
lradius 61.5635
lwrist 10.0498
lhand -25.7284 25.4015
lfingers 7.12502
lthumb 0.808048 55.3797
rfemur -28.0024 4.33854 23.5149
rtibia 27.6634
rfoot -16.1501 -0.234441
rtoes 10.9621
lfemur -32.738 7.55451 -24.057
ltibia 31.7461
lfoot -10.0893 6.05237
ltoes -13.0298
835
root 1.25549 33.4344 -2.94834 -164.979 -5.34318 -175.746
lowerback 5.76605 0.34175 -3.60928
upperback 0.998471 0.164813 -0.409997
thorax -2.21446 0.0816168 1.592
lowerneck -16.7262 9.41994 -27.3909
upperneck 43.0273 9.98002 24.0403
head 14.1156 1.78514 17.1807
rclavicle 1.98785e-015 -1.19271e-014
rhumerus -12.3356 1.24327 -85.6591
rradius 57.9566
rwrist -6.31766
rhand -26.6747 16.0125
rfingers 7.12502
rthumb -0.10592 -13.9673
lclavicle 1.98785e-015 -1.19271e-014
lhumerus 0.954789 -21.0039 84.3105
lradius 61.9993
lwrist 10.113
lhand -25.8668 25.5394
lfingers 7.12502
lthumb 0.674403 55.5181
rfemur -28.2546 4.39342 23.3918
rtibia 27.768
rfoot -16.4256 0.260701
rtoes 8.74997
lfemur -33.1186 7.72118 -24.17
ltibia 31.8994
lfoot -10.0918 5.75139
ltoes -13.3351
